@startuml classes
set namespaceSeparator none
class "Database" as database.db.Database #aliceblue {
    connection
    cursor
    database_path : str
    get_all_user_information()
    get_all_item_ids()
    get_full_inventory()
    get_full_sales_information()
    }

class "Customers" as customers {
    insert_user(username: str, password_hash: str, email: str, first_name: str, last_name: str) -> None
    set_email(username: str, new_email: str)
    set_first_name(username: str, new_first_name: str)
    set_last_name(username: str, new_last_name: str)
    set_password_hash(username: str, new_password_hash: str)
    get_email_by_username(username: str)
    get_first_name_by_username(username: str)
    get_last_name_by_username(username: str)
    get_password_hash_by_username(username: str)
    get_sales_by_username(username: str)
}

class "Sales" as sales {
    insert_new_sale(transaction_id: int, username: str, item_id: int, quantity: int, sale_date: dt.date, cost: float)
    get_cost_by_sale_id(sale_id: int)
    get_full_sale_by_id(sale_id: int)
    get_quantity_by_sale_id(sale_id: int)
    get_sale_date_by_sale_id(sale_id: int)
    get_sales_by_cost_range(start_cost: float, end_cost: float)
    get_sales_by_date_range(start_date: dt.date, end_date: dt.date)
    get_sales_by_item_id(item_id: int)
    get_sales_by_quantity_range(start_quantity: int, end_quantity: int)
    get_sales_by_transaction_id(transaction_id: int)
    get_transaction_id_by_sale_id(sale_id: int)
    get_username_by_sale_id(sale_id: int)
    set_sale_cost(sale_id: int, discount: float, tax: float)
    set_sale_date(sale_id: int, new_sale_date: dt.date)
    set_sale_item_id(sale_id: int, new_item_id: int)
    set_sale_quantity(sale_id: int, new_quantity: int)
    set_sale_transaction_id(sale_id: int, new_transaction_id: int)
    set_sale_username(sale_id: int, new_username: str)
}

class "Items" as item {
    insert_new_item(item_name: str, price: int, info: str) -> None
    get_item_category_by_id(item_id: int)
    get_item_id_by_sale_id(sale_id: int)
    get_item_image_url_by_id(item_id: int)
    get_item_info_by_id(item_id: int)
    get_item_name_by_id(item_id: int)
    get_item_price_by_id(item_id: int)
    get_item_stock_by_id(item_id: int)
    set_item_category(item_id: int, new_category: str)
    set_item_image_url(item_id: int, new_image_url: str)
    set_item_info(item_id: int, new_info: str)
    set_item_name(item_id: int, new_name: str)
    set_item_price(item_id: int, new_price: float)
    set_item_stock(item_id: int, new_stock: int)
}
database.db.Database --> customers
database.db.Database --> sales
database.db.Database --> item
@enduml
